<svg width="130" height="19" viewBox="0 0 130 19" fill="none" xmlns="http://www.w3.org/2000/svg">
<path d="M6.77273 18H0.321023V0.545454H6.7642C8.54261 0.545454 10.0739 0.894886 11.358 1.59375C12.6477 2.28693 13.642 3.28693 14.3409 4.59375C15.0398 5.89489 15.3892 7.4517 15.3892 9.2642C15.3892 11.0824 15.0398 12.6449 14.3409 13.9517C13.6477 15.2585 12.6562 16.2614 11.3665 16.9602C10.0767 17.6534 8.54545 18 6.77273 18ZM4.53977 14.4034H6.6108C7.58807 14.4034 8.41477 14.2386 9.09091 13.9091C9.77273 13.5739 10.2869 13.0312 10.6335 12.2812C10.9858 11.5256 11.1619 10.5199 11.1619 9.2642C11.1619 8.00852 10.9858 7.00852 10.6335 6.2642C10.2813 5.5142 9.76136 4.97443 9.07386 4.64489C8.39205 4.30966 7.55114 4.14204 6.55114 4.14204H4.53977V14.4034ZM32.7074 0.545454V18H29.1278L22.1818 7.92614H22.071V18H17.8523V0.545454H21.483L28.3523 10.6023H28.4972V0.545454H32.7074ZM35.3601 0.545454H40.5845L45.0163 11.3523H45.2209L49.6527 0.545454H54.8771V18H50.7692V7.27841H50.6243L46.4311 17.8892H43.8061L39.6129 7.21875H39.468V18H35.3601V0.545454ZM73.983 9.27273C73.983 11.1932 73.6136 12.821 72.875 14.1562C72.1364 15.4915 71.1364 16.5057 69.875 17.1989C68.6193 17.892 67.2102 18.2386 65.6477 18.2386C64.0795 18.2386 62.6676 17.8892 61.4119 17.1903C60.1563 16.4915 59.1591 15.4773 58.4205 14.1477C57.6875 12.8125 57.321 11.1875 57.321 9.27273C57.321 7.35227 57.6875 5.72443 58.4205 4.3892C59.1591 3.05398 60.1563 2.03977 61.4119 1.34659C62.6676 0.653409 64.0795 0.306818 65.6477 0.306818C67.2102 0.306818 68.6193 0.653409 69.875 1.34659C71.1364 2.03977 72.1364 3.05398 72.875 4.3892C73.6136 5.72443 73.983 7.35227 73.983 9.27273ZM69.6705 9.27273C69.6705 8.13636 69.5085 7.17614 69.1847 6.39205C68.8665 5.60795 68.4063 5.0142 67.804 4.61079C67.2074 4.20739 66.4886 4.00568 65.6477 4.00568C64.8125 4.00568 64.0938 4.20739 63.4915 4.61079C62.8892 5.0142 62.4261 5.60795 62.1023 6.39205C61.7841 7.17614 61.625 8.13636 61.625 9.27273C61.625 10.4091 61.7841 11.3693 62.1023 12.1534C62.4261 12.9375 62.8892 13.5312 63.4915 13.9347C64.0938 14.3381 64.8125 14.5398 65.6477 14.5398C66.4886 14.5398 67.2074 14.3381 67.804 13.9347C68.4063 13.5312 68.8665 12.9375 69.1847 12.1534C69.5085 11.3693 69.6705 10.4091 69.6705 9.27273ZM79.3778 0.545454L83.2812 13.3295H83.4261L87.3295 0.545454H92.0511L86.1619 18H80.5455L74.6562 0.545454H79.3778ZM98.1491 0.545454V18H93.9304V0.545454H98.1491ZM100.798 18V0.545454H112.968V3.97159H105.016V7.55114H112.346V10.9858H105.016V14.5739H112.968V18H100.798ZM125.045 5.77841C124.988 5.15341 124.735 4.66761 124.286 4.32102C123.843 3.96875 123.21 3.79261 122.386 3.79261C121.84 3.79261 121.386 3.86364 121.022 4.00568C120.658 4.14773 120.386 4.34375 120.204 4.59375C120.022 4.83807 119.928 5.11932 119.923 5.4375C119.911 5.69886 119.962 5.92898 120.076 6.12784C120.195 6.3267 120.366 6.50284 120.587 6.65625C120.815 6.80398 121.087 6.93466 121.406 7.0483C121.724 7.16193 122.082 7.26136 122.479 7.34659L123.979 7.6875C124.843 7.875 125.604 8.125 126.263 8.4375C126.928 8.75 127.485 9.12216 127.934 9.55398C128.388 9.9858 128.732 10.483 128.965 11.0455C129.198 11.608 129.317 12.2386 129.323 12.9375C129.317 14.0398 129.039 14.9858 128.488 15.7756C127.937 16.5653 127.144 17.1705 126.11 17.5909C125.082 18.0114 123.84 18.2216 122.386 18.2216C120.925 18.2216 119.653 18.0028 118.567 17.5653C117.482 17.1278 116.638 16.4631 116.036 15.571C115.434 14.679 115.124 13.5511 115.107 12.1875H119.147C119.181 12.75 119.332 13.2188 119.599 13.5938C119.866 13.9688 120.232 14.2528 120.698 14.446C121.17 14.6392 121.715 14.7358 122.335 14.7358C122.903 14.7358 123.386 14.6591 123.783 14.5057C124.187 14.3523 124.496 14.1392 124.712 13.8665C124.928 13.5937 125.039 13.2812 125.045 12.929C125.039 12.5994 124.937 12.3182 124.738 12.0852C124.539 11.8466 124.232 11.642 123.817 11.4716C123.408 11.2955 122.886 11.1335 122.249 10.9858L120.425 10.5597C118.914 10.2131 117.724 9.65341 116.854 8.88068C115.985 8.10227 115.553 7.05114 115.559 5.72727C115.553 4.64773 115.843 3.7017 116.428 2.8892C117.013 2.0767 117.823 1.44318 118.857 0.988636C119.891 0.534091 121.07 0.306818 122.394 0.306818C123.746 0.306818 124.92 0.536931 125.914 0.997158C126.914 1.4517 127.69 2.09091 128.241 2.91477C128.792 3.73864 129.073 4.69318 129.085 5.77841H125.045Z" fill="url(#paint0_linear_2_2)"/>
<defs>
<linearGradient id="paint0_linear_2_2" x1="65" y1="-5" x2="65" y2="24" gradientUnits="userSpaceOnUse">
<stop stop-color="#E3E3E3"/>
<stop offset="1" stop-color="white" stop-opacity="0"/>
</linearGradient>
</defs>
</svg>
